<?xml version="1.0" standalone="no"?>
<!DOCTYPE svg PUBLIC "-//W3C//DTD SVG 20010904//EN"
 "http://www.w3.org/TR/2001/REC-SVG-20010904/DTD/svg10.dtd">
<svg version="1.0" xmlns="http://www.w3.org/2000/svg"
 width="512.000000pt" height="512.000000pt" viewBox="0 0 512.000000 512.000000"
 preserveAspectRatio="xMidYMid meet">

<g transform="translate(0.000000,512.000000) scale(0.100000,-0.100000)"
fill="#000000" stroke="none">
<path d="M2175 4146 c-36 -17 -1448 -1361 -1481 -1409 -38 -57 -57 -131 -52
-202 11 -127 -2 -113 788 -866 415 -395 730 -687 750 -696 92 -40 203 23 217
124 11 86 24 72 -644 705 l-625 593 1625 5 c1622 5 1626 5 1653 26 53 39 69
71 69 134 0 63 -16 95 -69 134 -27 21 -31 21 -1650 26 l-1622 5 619 590 c422
401 624 601 634 625 29 67 5 146 -59 193 -34 25 -113 32 -153 13z"/>
</g>
</svg>
