<?xml version="1.0" standalone="no"?>
<!DOCTYPE svg PUBLIC "-//W3C//DTD SVG 20010904//EN"
 "http://www.w3.org/TR/2001/REC-SVG-20010904/DTD/svg10.dtd">
<svg version="1.0" xmlns="http://www.w3.org/2000/svg"
 width="512.000000pt" height="512.000000pt" viewBox="0 0 512.000000 512.000000"
 preserveAspectRatio="xMidYMid meet">

<g transform="translate(0.000000,512.000000) scale(0.100000,-0.100000)"
fill="#000000" stroke="none">
<path d="M2975 4946 c-94 -41 -124 -169 -58 -247 51 -60 36 -59 700 -59 686 0
691 -1 833 -72 148 -74 271 -220 323 -383 l22 -70 0 -1555 0 -1555 -22 -70
c-62 -196 -225 -360 -423 -428 -64 -21 -78 -22 -717 -27 -638 -5 -652 -5 -679
-26 -53 -39 -69 -71 -69 -134 0 -63 16 -95 69 -134 27 -21 36 -21 689 -21 725
0 706 -1 866 61 242 96 449 303 545 545 65 167 61 40 61 1789 0 1481 -1 1590
-18 1654 -46 182 -128 327 -257 457 -129 131 -264 210 -449 262 -74 21 -95 21
-731 24 -533 2 -661 0 -685 -11z"/>
<path d="M2015 4306 c-41 -18 -83 -69 -91 -111 -17 -91 -49 -54 689 -792 l682
-683 -1597 -2 c-1595 -3 -1597 -3 -1624 -24 -53 -39 -69 -71 -69 -134 0 -63
16 -95 69 -134 27 -21 29 -21 1624 -24 l1597 -2 -682 -683 c-740 -740 -706
-701 -688 -794 9 -49 69 -109 118 -118 94 -18 40 -66 949 843 743 744 837 841
843 874 18 95 65 41 -833 942 -481 482 -840 834 -859 842 -40 17 -89 17 -128
0z"/>
</g>
</svg>
