<?xml version="1.0" standalone="no"?>
<!DOCTYPE svg PUBLIC "-//W3C//DTD SVG 20010904//EN"
 "http://www.w3.org/TR/2001/REC-SVG-20010904/DTD/svg10.dtd">
<svg version="1.0" xmlns="http://www.w3.org/2000/svg"
 width="512.000000pt" height="512.000000pt" viewBox="0 0 512.000000 512.000000"
 preserveAspectRatio="xMidYMid meet">

<g transform="translate(0.000000,512.000000) scale(0.100000,-0.100000)"
fill="#000000" stroke="none">
<path d="M2370 5113 c-468 -44 -863 -180 -1220 -419 -385 -257 -682 -596 -886
-1009 -126 -258 -203 -511 -246 -810 -17 -118 -17 -512 0 -630 42 -295 120
-553 242 -800 137 -280 272 -468 494 -691 221 -220 412 -357 681 -489 188 -92
309 -137 500 -185 196 -49 343 -70 545 -77 580 -20 1143 158 1615 511 138 103
379 339 477 466 496 644 663 1434 468 2210 -59 235 -182 525 -306 720 -211
333 -537 653 -856 843 -413 246 -871 371 -1338 365 -74 0 -151 -3 -170 -5z
m406 -244 c677 -66 1280 -416 1681 -977 312 -437 465 -1010 412 -1548 -51
-529 -273 -1010 -642 -1391 -173 -179 -331 -301 -537 -417 -696 -390 -1537
-394 -2240 -10 -207 113 -343 215 -526 398 -229 230 -378 447 -497 728 -249
582 -247 1241 4 1825 121 283 287 521 518 745 329 320 718 525 1161 612 229
45 448 57 666 35z"/>
<path d="M1235 3586 c-63 -29 -126 -97 -151 -162 -18 -47 -19 -86 -19 -869 l0
-820 24 -52 c29 -65 101 -134 166 -159 48 -18 92 -19 1305 -19 1213 0 1257 1
1305 19 65 25 137 94 166 159 l24 52 0 820 c0 783 -1 822 -19 869 -25 65 -88
133 -151 162 l-50 24 -1275 0 -1275 0 -50 -24z m2329 -225 c-39 -37 -996 -791
-1003 -791 -7 0 -965 754 -1005 791 -6 5 423 9 1004 9 584 0 1010 -4 1004 -9z
m-1419 -774 c198 -158 372 -289 388 -293 15 -3 40 -3 55 1 15 3 288 213 622
478 l595 473 3 -735 c2 -651 0 -737 -13 -751 -14 -13 -151 -15 -1223 -17 -960
-2 -1212 0 -1232 10 l-25 13 -3 742 -2 742 237 -189 c131 -104 400 -317 598
-474z"/>
</g>
</svg>
