<?xml version="1.0" standalone="no"?>
<!DOCTYPE svg PUBLIC "-//W3C//DTD SVG 20010904//EN"
 "http://www.w3.org/TR/2001/REC-SVG-20010904/DTD/svg10.dtd">
<svg version="1.0" xmlns="http://www.w3.org/2000/svg"
 width="512.000000pt" height="512.000000pt" viewBox="0 0 512.000000 512.000000"
 preserveAspectRatio="xMidYMid meet">

<g transform="translate(0.000000,512.000000) scale(0.100000,-0.100000)"
fill="#000000" stroke="none">
<path d="M765 4033 c-164 -86 -166 -300 -3 -384 36 -18 85 -19 1795 -19 1690
0 1760 1 1798 19 164 76 166 298 3 382 -36 18 -85 19 -1800 19 -1586 -1 -1766
-2 -1793 -17z"/>
<path d="M765 2753 c-164 -86 -166 -300 -3 -384 36 -18 85 -19 1795 -19 1690
0 1760 1 1798 19 164 76 166 298 3 382 -36 18 -85 19 -1800 19 -1586 -1 -1766
-2 -1793 -17z"/>
<path d="M765 1473 c-164 -86 -166 -300 -3 -384 36 -18 85 -19 1795 -19 1690
0 1760 1 1798 19 164 76 166 298 3 382 -36 18 -85 19 -1800 19 -1586 -1 -1766
-2 -1793 -17z"/>
</g>
</svg>
