<?xml version="1.0" standalone="no"?>
<!DOCTYPE svg PUBLIC "-//W3C//DTD SVG 20010904//EN"
 "http://www.w3.org/TR/2001/REC-SVG-20010904/DTD/svg10.dtd">
<svg version="1.0" xmlns="http://www.w3.org/2000/svg"
 width="512.000000pt" height="512.000000pt" viewBox="0 0 512.000000 512.000000"
 preserveAspectRatio="xMidYMid meet">

<g transform="translate(0.000000,512.000000) scale(0.100000,-0.100000)"
fill="#000000" stroke="none">
<path d="M2330 4729 c-747 -85 -1391 -533 -1720 -1196 -103 -209 -168 -413
-207 -648 -27 -168 -25 -506 6 -678 82 -468 285 -861 611 -1187 325 -326 719
-528 1187 -611 184 -33 521 -33 704 -1 619 110 1125 437 1464 947 471 707 485
1631 37 2353 -314 506 -837 870 -1415 987 -217 43 -471 56 -667 34z m438 -190
c470 -51 912 -268 1231 -605 747 -789 733 -2013 -34 -2779 -763 -764 -1985
-781 -2772 -41 -394 371 -623 902 -623 1446 0 686 358 1329 943 1692 239 149
546 255 827 287 110 12 317 13 428 0z"/>
<path d="M2405 4154 c-216 -52 -393 -216 -477 -441 -20 -53 -22 -83 -27 -368
l-6 -310 -101 -6 c-84 -4 -111 -10 -159 -34 -78 -38 -139 -101 -178 -183 l-32
-67 -3 -620 c-2 -438 0 -638 8 -680 23 -119 99 -216 210 -269 l65 -31 839 -3
c915 -3 885 -4 977 53 55 35 126 120 151 183 l23 57 3 615 c2 435 0 633 -8
675 -24 122 -102 224 -208 273 -45 20 -78 27 -157 31 l-100 6 -5 305 c-6 337
-9 351 -78 485 -50 95 -172 217 -269 268 -139 73 -321 96 -468 61z m264 -185
c155 -35 294 -166 342 -320 17 -54 19 -94 19 -340 l0 -279 -470 0 -470 0 0
279 c0 246 2 286 19 340 47 152 188 285 338 320 52 12 169 13 222 0z m741
-1148 c19 -10 49 -37 65 -60 l30 -43 0 -632 0 -632 -27 -41 c-16 -24 -44 -49
-70 -62 -44 -21 -49 -21 -848 -21 -799 0 -804 0 -848 21 -26 13 -54 38 -70 62
l-27 41 0 632 0 632 30 43 c60 85 -6 79 915 79 775 0 817 -1 850 -19z"/>
<path d="M2502 2459 c-119 -15 -230 -99 -285 -217 -28 -60 -32 -77 -32 -157 0
-82 3 -97 32 -155 39 -80 105 -148 181 -186 52 -27 66 -29 162 -29 96 0 110 2
162 29 77 39 144 108 182 186 27 58 31 75 31 155 0 80 -4 97 -32 157 -74 156
-226 239 -401 217z m150 -211 c50 -25 90 -86 96 -148 14 -149 -153 -252 -284
-175 -84 49 -116 153 -74 239 49 103 157 137 262 84z"/>
</g>
</svg>
